<svg width="136" height="62" viewBox="0 0 136 62" fill="none" xmlns="http://www.w3.org/2000/svg">
<path d="M49.4416 47.1965C48.3954 39.2874 44.4984 32.8372 40.5246 32.7988C36.5413 32.7988 30.7246 39.2586 27.3364 47.2061C23.9481 55.1536 27.7875 61.6038 36.3109 61.6038C44.8919 61.5174 50.4974 55.1248 49.4512 47.1965" fill="#E0E0E0"/>
<path d="M8.80178 26.1382C3.7146 26.1382 0 30.1599 0 35.2567C0 40.3535 3.7146 44.2505 8.80178 44.2505C11.6333 44.2505 14.3113 42.9739 16.0678 40.7662C15.8758 40.5839 15.3863 39.5472 13.7546 39.5472C12.2092 39.5472 11.8541 41.0926 8.80178 41.0926C5.74947 41.0926 3.32107 38.549 3.32107 35.2567C3.32107 31.9644 5.80707 29.2961 8.80178 29.2961C11.5373 29.2961 12.19 30.9182 13.5914 30.9182C14.9928 30.9182 15.8087 29.7952 16.0102 29.6224C14.2441 27.4148 11.6333 26.1478 8.80178 26.1478" fill="#E0E0E0"/>
<path d="M26.7606 26.6655H19.6001C18.3907 26.6655 17.5461 27.395 17.5461 28.5468V29.6027H20.7423C20.7423 29.6027 20.8671 40.3817 20.7231 41.5431C20.6847 42.4358 20.2912 44.5666 18.2467 45.5265C16.567 46.3136 16.5478 47.0718 16.4614 48.2429C16.4806 48.3292 16.519 48.3772 16.567 48.3868C16.567 48.3868 16.5766 48.3868 16.5862 48.3868C16.6438 48.3676 18.2563 47.9741 18.4963 47.8781C20.0033 47.3982 22.3261 46.3616 23.4203 44.2211C23.4203 44.2211 24.4569 42.6278 24.4377 39.2203V29.6219H24.5913C25.8007 29.6219 26.7702 28.8924 26.7702 27.7406V26.6847" fill="#E0E0E0"/>
<path d="M63.657 20.9928C56.199 18.0556 48.6547 18.3628 46.7254 21.847C44.8441 25.3697 47.6372 33.5283 52.9452 40.3432C58.2531 47.1581 65.7399 46.9374 69.8768 39.4794C73.9658 32.0406 71.0958 23.9299 63.6474 21.0024" fill="#E0E0E0"/>
<path d="M25.7047 23.3736C32.3277 27.9041 39.7473 29.267 42.3773 26.3299C45.0264 23.3736 44.1146 14.735 40.4576 6.90263C36.8006 -0.920108 29.4385 -2.36948 23.7467 3.9751C18.1316 10.3197 19.0914 18.8719 25.7047 23.3736Z" fill="#E0E0E0"/>
<path d="M79.8399 26.5213H78.4673C77.1235 26.5213 76.3748 27.1644 76.3652 28.3834V44.2401H77.7186C78.9568 44.2401 79.8303 43.6162 79.8303 42.4452V36.6669H84.6103C85.3686 36.6669 85.9829 36.4269 86.3476 35.9758V44.2401H87.749C89.0736 44.2305 89.8031 43.5874 89.8127 42.378V26.5117H88.4593C87.2211 26.5117 86.3476 27.1452 86.3476 28.3258V33.9121H81.3948C80.9341 33.9121 80.2046 33.9697 79.8303 34.6032V26.5117" fill="#E0E0E0"/>
<path d="M128.447 37.7807C125.932 37.7807 124.31 35.9666 124.31 33.3942C124.31 30.6395 126.057 28.9309 128.447 28.9309C130.837 28.9309 132.555 30.8122 132.555 33.3942C132.555 36.1586 130.971 37.7807 128.447 37.7807ZM128.475 26.0034C124.022 26.0034 121.238 29.6124 121.238 33.4038C121.238 37.1952 124.194 40.7274 128.466 40.7274C132.737 40.7274 135.597 37.3488 135.617 33.4326V33.3654C135.597 29.7468 132.919 26.0034 128.475 26.0034Z" fill="#E0E0E0"/>
<path d="M101.1 26.5215H93.9208C93.3928 26.5215 92.9801 26.6559 92.7018 26.8958C92.4234 27.1454 92.2794 27.5101 92.2794 27.99V40.4584H99.4591C100.429 40.4488 101.091 39.9689 101.091 39.0571V37.9628C100.774 37.9628 96.6371 37.9628 96.5603 37.9628C96.2148 37.9628 95.6773 38.0108 95.3893 38.5004L95.3413 38.5867V34.757H99.1519C100.121 34.757 100.784 34.2674 100.784 33.3556V32.2518H96.6083C96.2532 32.2518 95.6773 32.2998 95.3893 32.7893L95.3413 32.8757V29.0267H99.4591C100.429 29.0267 101.091 28.4508 101.091 27.5389V26.5311" fill="#E0E0E0"/>
<path d="M107.416 37.7805C107.071 37.7901 106.61 37.8765 106.361 38.3084L106.313 38.3948V26.5215H104.873C103.903 26.5215 103.232 27.2222 103.232 28.134V40.4488H109.749C110.718 40.4488 111.371 39.8921 111.381 38.9803V37.7805H107.416Z" fill="#E0E0E0"/>
<path d="M117.034 37.7806C116.689 37.7902 116.237 37.8766 115.978 38.3182L115.93 38.4045V26.5312H114.491C113.521 26.5312 112.849 27.2319 112.849 28.1534V40.4586H119.367C120.336 40.4586 120.998 39.9019 120.998 38.99V37.7902H117.034V37.7806Z" fill="#E0E0E0"/>
</svg>
