<svg width="22" height="20" viewBox="0 0 22 20" fill="none" xmlns="http://www.w3.org/2000/svg">
<path d="M11.4565 11.2491C12.2287 17.3894 16.0195 19.5609 16.0195 19.5609C16.0195 19.5609 16.2862 15.3261 11.4565 11.2491Z" fill="#E50038"/>
<path d="M11.9434 10.8389C15.6031 15.9206 20.0116 16.1413 20.0116 16.1413C20.0116 16.1413 18.1958 12.2715 11.9434 10.8389Z" fill="#E50038"/>
<path d="M12.1772 10.249C17.8821 13.1007 21.8834 11.3212 21.8834 11.3212C21.8834 11.3212 18.4016 8.70824 12.1772 10.249Z" fill="#E50038"/>
<path d="M12.1023 9.62276C18.5278 9.58222 21.2048 6.20344 21.2048 6.20344C21.2048 6.20344 16.8618 5.46912 12.1023 9.62276Z" fill="#E50038"/>
<path d="M11.3723 9.45157C17.0397 6.5278 17.7651 2.34262 17.7651 2.34262C17.7651 2.34262 13.5672 3.63557 11.3723 9.45157Z" fill="#E50038"/>
<path d="M10.792 9.16325C14.3862 4.03201 13.0009 0 13.0009 0C13.0009 0 9.91214 3.03189 10.792 9.16325Z" fill="#E50038"/>
<path d="M10.1415 9.16776C10.8295 3.01387 7.64713 0.0720825 7.64713 0.0720825C7.64713 0.0720825 6.39291 4.14013 10.1415 9.16776Z" fill="#E50038"/>
<path d="M9.56567 9.46058C7.18826 3.71215 2.94824 2.54084 2.94824 2.54084C2.94824 2.54084 3.81403 6.7035 9.56567 9.46058Z" fill="#E3007F"/>
<path d="M9.20075 9.98284C4.3149 5.96435 0 6.82931 0 6.82931C0 6.82931 2.7752 10.127 9.20075 9.98284Z" fill="#F29600"/>
</svg>
